<svg version="1.1" id="Layer_1" xmlns="http://www.w3.org/2000/svg" xmlns:xlink="http://www.w3.org/1999/xlink" x="0px" y="0px"
	 width="100%" viewBox="130 145 590 110" enable-background="new 0 0 848 400" xml:space="preserve">
<path fill="#000000" opacity="1.000000" stroke="none" 
	d="
M203.840942,231.016220 
	C209.123001,235.512894 214.373917,235.701508 218.397003,231.831741 
	C221.703873,228.650894 222.000031,222.590118 218.490295,218.067764 
	C212.637283,210.526047 204.841309,204.913422 198.050491,198.293823 
	C192.389175,192.775269 187.324936,186.990219 185.545013,178.887787 
	C183.297913,168.658630 187.365417,157.696259 195.862778,152.183105 
	C205.625366,145.849091 218.831223,146.249084 227.778992,153.149826 
	C235.887222,159.403107 239.499481,171.286514 236.084122,181.055283 
	C234.926468,184.366470 233.428787,187.706253 229.726410,188.943832 
	C226.229752,190.112656 222.725891,189.893784 219.872467,187.276535 
	C217.220352,184.843918 216.322372,181.806061 217.288315,178.190125 
	C217.752899,176.450943 217.978653,174.561325 217.858749,172.770203 
	C217.585800,168.693802 214.980560,166.968536 211.125687,166.978897 
	C207.254211,166.989304 204.796219,168.859192 204.319260,172.822342 
	C203.836731,176.831665 205.747650,180.001587 208.480103,182.573792 
	C214.176361,187.935944 220.049545,193.110260 225.853668,198.357727 
	C232.225662,204.118591 237.855515,210.384674 240.303955,219.076508 
	C241.116837,209.439499 241.906250,199.800400 242.755524,190.166611 
	C243.047531,186.854340 243.331161,183.527313 243.909927,180.258606 
	C244.415298,177.404297 245.455826,174.421722 248.918839,174.271179 
	C252.462509,174.117111 253.732681,177.063324 254.200821,179.912201 
	C255.710693,189.100479 256.965393,198.330612 258.331329,207.542694 
	C258.497620,208.664185 258.742157,209.774078 259.216827,212.316055 
	C260.574310,206.006927 261.578186,201.077057 262.710266,196.176819 
	C263.412018,193.139160 264.649231,190.230103 268.237671,189.939240 
	C272.032562,189.631668 273.594482,192.638733 274.184479,195.577454 
	C275.358307,201.423737 278.492279,203.696838 284.357971,202.768295 
	C286.555817,202.420349 289.049744,202.899918 289.109100,205.826752 
	C289.168793,208.769943 286.675385,208.950043 284.460663,209.144165 
	C284.294952,209.158691 284.125610,209.141541 283.961639,209.164948 
	C276.319763,210.255905 270.319916,208.622665 268.275513,199.842880 
	C267.277863,204.860992 266.432953,209.916092 265.230164,214.884537 
	C264.392273,218.345566 264.000092,222.965027 259.302002,223.002380 
	C254.271286,223.042404 253.759644,218.205032 253.110153,214.599335 
	C251.667404,206.590118 250.733154,198.489288 249.185028,190.373795 
	C248.197266,201.425735 247.228180,212.479385 246.207397,223.528275 
	C245.978165,226.009628 245.569672,228.474472 245.240738,230.946533 
	C245.057663,232.322327 244.574554,234.033035 243.389496,234.304153 
	C237.606903,235.627121 236.268188,241.191391 232.931839,244.812927 
	C219.178650,259.741791 193.719559,256.397736 184.032852,238.330475 
	C183.251434,236.873001 182.851501,235.147293 181.182922,234.377945 
	C178.027679,232.923141 177.133163,230.080002 176.783493,227.032211 
	C175.304977,214.145798 173.912582,201.249481 172.468872,188.177246 
	C170.147568,196.885269 170.516983,205.881927 168.475281,214.495422 
	C168.169144,215.786957 167.926819,217.101410 167.510391,218.357315 
	C166.735077,220.695648 165.425049,222.725952 162.712372,222.786194 
	C160.038452,222.845566 158.558289,220.919220 157.582932,218.680298 
	C155.432846,213.744873 154.931656,208.390106 153.755020,203.206970 
	C153.577011,202.422852 153.362717,201.646988 153.126007,200.712540 
	C151.539017,201.487732 151.583450,202.959732 151.104874,204.046783 
	C148.344360,210.316956 141.899109,213.000458 135.473145,210.491638 
	C134.139328,209.970901 133.006989,209.238525 133.013824,207.707764 
	C133.022003,205.877670 134.516251,204.702728 135.944351,204.935242 
	C143.948196,206.238434 146.256958,201.198898 147.827301,194.925323 
	C148.431076,192.513306 150.137314,190.779190 152.880341,190.908783 
	C155.764587,191.045074 157.491104,193.001343 158.159470,195.526169 
	C159.597046,200.956604 160.718292,206.470764 162.638443,211.966400 
	C163.986145,202.224701 165.228912,192.466751 166.734085,182.749435 
	C167.322205,178.952545 167.160141,173.633347 172.342575,173.464050 
	C178.077988,173.276657 177.848618,178.880814 178.328873,182.776733 
	C179.528381,192.507416 180.295746,202.291306 181.241730,212.053345 
	C181.432053,214.017365 181.645325,215.979156 181.958450,219.011826 
	C183.646423,214.717941 184.718277,211.303864 186.912781,208.458023 
	C190.445908,203.876175 195.611771,202.612366 200.134338,205.219940 
	C205.177490,208.127686 207.072525,213.588379 204.496979,218.939316 
	C202.617828,222.843445 201.054535,226.568649 203.840942,231.016220 
M233.576202,221.210419 
	C232.245453,215.343155 229.359055,210.387329 224.876389,206.367950 
	C219.669693,201.699341 214.486099,197.004593 209.245819,192.373993 
	C205.484238,189.050034 201.846329,185.617310 199.442200,181.139999 
	C196.513901,175.686523 197.198639,169.191757 201.037079,164.782349 
	C204.559708,160.735794 210.447037,159.178421 215.601562,160.929672 
	C222.418137,163.245590 225.514709,169.499268 223.915054,177.972137 
	C223.567062,179.815247 222.730255,181.785477 225.186264,182.568970 
	C227.544083,183.321152 228.967041,181.860596 229.688873,179.735077 
	C230.114014,178.483246 230.500717,177.188538 230.665359,175.882919 
	C231.706268,167.627975 228.388428,160.238495 221.711914,156.824112 
	C213.818817,152.787582 205.880798,152.859894 198.630295,158.298080 
	C189.438599,165.192261 188.684174,177.700272 196.701035,187.573898 
	C201.658783,193.679871 207.869568,198.529434 213.545609,203.915359 
	C218.000778,208.142822 222.917831,211.957458 225.667175,217.715225 
	C229.131775,224.970932 227.589493,232.389877 221.429871,237.510742 
	C216.012512,242.014526 207.606033,242.281036 201.900787,238.129898 
	C196.025757,233.855225 194.304840,226.363205 197.482712,218.900742 
	C197.873734,217.982483 198.384277,217.092560 198.620163,216.135452 
	C199.116837,214.120331 199.312805,211.994507 197.106308,210.857269 
	C194.684265,209.608948 193.004852,211.010422 191.627747,212.904648 
	C184.539597,222.654449 187.811157,238.513214 198.213821,244.513977 
	C206.642822,249.376266 215.179688,248.979767 223.386154,244.173813 
	C231.776794,239.259995 234.777496,231.535599 233.576202,221.210419 
z"/>
<path fill="#000000" opacity="1.000000" stroke="none" 
	d="
M312.173279,218.433609 
	C312.007507,215.728012 308.705994,212.552933 312.656982,211.272095 
	C315.844116,210.238922 319.616791,209.430145 321.876038,214.240814 
	C324.501068,219.830444 332.744568,221.315445 337.941925,217.793854 
	C341.989563,215.051285 341.739929,209.942413 337.285065,207.834198 
	C334.903168,206.706985 332.265656,206.109955 329.726837,205.327652 
	C327.821838,204.740692 325.865112,204.315628 323.974945,203.687454 
	C315.934082,201.015167 312.068237,196.640793 311.982208,190.211121 
	C311.892792,183.528900 316.356049,177.964203 324.088898,175.528122 
	C330.743469,173.431732 337.308014,174.052536 343.382629,177.461777 
	C347.965515,180.033829 350.686920,183.998337 350.855743,189.681656 
	C346.190948,190.700531 342.366241,191.472290 339.272186,186.639328 
	C336.794495,182.769073 329.488190,182.173431 325.611115,184.687408 
	C321.560974,187.313644 321.651611,191.945709 325.988770,194.219284 
	C328.165833,195.360489 330.642395,195.954407 333.016724,196.688385 
	C335.395782,197.423828 337.857483,197.904480 340.210815,198.708115 
	C347.713501,201.270248 351.950989,206.311340 351.995575,212.548447 
	C352.043640,219.273056 347.063416,225.335098 339.583923,227.656250 
	C328.658386,231.046799 317.680115,227.477509 312.173279,218.433609 
z"/>
<path fill="#000000" opacity="1.000000" stroke="none" 
	d="
M439.436096,215.244644 
	C435.596039,205.484497 441.004730,192.517807 448.980774,189.219910 
	C457.646332,185.636917 468.146362,187.823776 473.230835,194.990280 
	C479.050354,203.192886 478.246582,216.228729 471.492584,223.181152 
	C465.176666,229.682617 454.151978,230.601898 446.302673,225.201294 
	C442.901550,222.861176 440.734100,219.573593 439.436096,215.244644 
M449.880096,201.725815 
	C448.665314,205.300156 448.746033,209.008301 449.502045,212.566422 
	C450.300598,216.324692 452.392822,219.337509 456.738983,219.719666 
	C461.156219,220.108093 464.007324,217.993698 465.577789,213.961014 
	C467.018066,210.262680 467.146515,206.531509 465.893219,202.754379 
	C464.708099,199.182632 462.654938,196.579041 458.609741,196.215759 
	C454.713745,195.865875 451.791534,197.273544 449.880096,201.725815 
z"/>
<path fill="#000000" opacity="1.000000" stroke="none" 
	d="
M393.338531,207.084610 
	C393.602264,216.022247 390.828094,223.016449 382.835205,226.820480 
	C375.659912,230.235413 368.493195,229.586533 362.242249,224.542892 
	C355.125824,218.800949 353.750610,211.084991 355.647705,202.497559 
	C357.350464,194.789932 361.856506,189.568054 369.643127,188.042786 
	C377.459167,186.511780 384.535583,188.189941 389.640167,194.971909 
	C392.231812,198.415176 393.322510,202.353729 393.338531,207.084610 
M366.351807,202.067291 
	C364.901947,206.494843 364.898712,210.861588 366.960358,215.118546 
	C368.371552,218.032440 370.550293,219.782059 373.957062,219.793137 
	C377.488251,219.804611 379.958527,218.168365 381.541260,215.121582 
	C383.224152,211.882019 383.063507,208.369247 382.755829,204.897675 
	C382.366180,200.500000 380.134979,197.363785 375.722443,196.351761 
	C371.361053,195.351471 368.357971,197.324692 366.351807,202.067291 
z"/>
<path fill="#000000" opacity="1.000000" stroke="none" 
	d="
M510.301239,222.463089 
	C506.666321,215.723877 508.178650,208.761520 507.900238,202.004623 
	C507.783783,199.178177 508.072632,196.332825 507.913940,193.510864 
	C507.696686,189.647766 508.847778,187.715729 513.215881,187.733856 
	C517.659180,187.752319 518.490356,189.821060 518.347900,193.621841 
	C518.135864,199.278748 518.289551,204.949356 518.287354,210.614136 
	C518.285706,214.784653 519.172852,218.369644 524.192200,218.917191 
	C528.548523,219.392410 531.998352,216.602936 532.411011,211.427856 
	C532.886353,205.466324 532.711731,199.442932 532.615234,193.449692 
	C532.559753,190.003708 533.050293,187.748367 537.402649,187.759720 
	C541.514587,187.770462 543.040771,189.218536 542.966919,193.306519 
	C542.795532,202.800003 542.975342,212.299377 542.874939,221.794907 
	C542.850403,224.112350 543.750671,227.312012 540.170532,227.860077 
	C536.976624,228.349030 533.320740,229.034637 532.287842,224.331238 
	C523.223694,230.308411 516.571106,229.787491 510.301239,222.463089 
z"/>
<path fill="#000000" opacity="1.000000" stroke="none" 
	d="
M398.560822,213.419800 
	C398.437988,206.517899 398.250885,200.039383 398.236359,193.560486 
	C398.231384,191.341049 397.782990,188.735046 400.988190,187.931885 
	C404.487091,187.055145 407.042816,188.096558 408.841156,191.641022 
	C412.176971,189.080658 415.774170,187.396698 420.165375,187.619980 
	C427.649139,188.000488 432.736816,192.026794 433.154022,199.398453 
	C433.632599,207.855698 433.345978,216.355865 433.406799,224.837265 
	C433.436340,228.957504 430.319336,227.925262 428.032440,228.056442 
	C425.541718,228.199356 423.368164,227.930603 423.494904,224.424896 
	C423.687195,219.105804 423.619171,213.776230 423.602448,208.451294 
	C423.597260,206.794357 423.491119,205.125946 423.273254,203.483734 
	C422.697784,199.145355 420.485474,196.178635 415.817230,196.444351 
	C411.226501,196.705688 409.113129,199.757416 409.051178,204.176910 
	C408.967285,210.166153 408.866974,216.163834 409.091370,222.145966 
	C409.262878,226.719101 407.407104,228.396652 402.886322,228.144592 
	C399.518860,227.956848 397.957214,226.662384 398.122650,223.309830 
	C398.278381,220.154648 398.417664,216.998657 398.560822,213.419800 
z"/>
<path fill="#000000" opacity="1.000000" stroke="none" 
	d="
M591.061035,227.976410 
	C587.915100,227.540146 587.858398,225.467377 587.857605,223.419769 
	C587.851624,208.613968 587.899536,193.808029 587.845032,179.002457 
	C587.833374,175.836960 589.111694,174.494614 592.316528,174.574722 
	C597.969360,174.715973 603.633850,174.476624 609.282043,174.693848 
	C618.963013,175.066193 625.127747,181.689026 625.249878,191.550888 
	C625.364441,200.801926 619.044678,207.624649 609.637573,208.239166 
	C606.488892,208.444855 603.315918,208.402023 600.158508,208.313461 
	C597.176147,208.229813 595.915222,209.614853 595.942993,212.508301 
	C595.978149,216.167435 595.883606,219.827774 595.915833,223.486969 
	C595.942505,226.515961 594.768250,228.269974 591.061035,227.976410 
M611.996826,182.207382 
	C610.151062,181.282516 608.156616,181.280594 606.166443,181.286850 
	C593.692627,181.326080 595.324951,180.185669 595.808167,191.631927 
	C596.286499,202.962280 594.694275,201.586807 606.618469,201.668991 
	C611.564148,201.703079 615.354492,199.723846 617.199768,194.987045 
	C618.988098,190.396530 617.335388,186.091232 611.996826,182.207382 
z"/>
<path fill="#000000" opacity="1.000000" stroke="none" 
	d="
M554.955933,189.596313 
	C561.069763,186.876938 566.980774,186.892731 572.793335,188.944382 
	C577.106873,190.466934 580.020996,193.474030 580.494751,198.542816 
	C576.354431,200.421432 572.689941,201.563248 569.344788,197.195190 
	C567.989075,195.424789 565.621643,195.053528 563.364746,195.562424 
	C561.392700,196.007080 559.245850,196.552063 558.974731,198.973236 
	C558.683777,201.571152 560.817749,202.287018 562.772339,202.788345 
	C565.665222,203.530304 568.633850,203.979752 571.521362,204.739365 
	C578.306458,206.524353 581.433838,209.848755 581.710632,215.359207 
	C581.979187,220.703964 578.481873,225.240555 572.360718,227.487640 
	C564.879578,230.233978 554.808472,228.368408 550.582275,223.169769 
	C549.045593,221.279465 546.067810,218.491348 548.979919,216.496490 
	C551.218750,214.962799 555.127258,213.470169 557.954773,217.050797 
	C560.661682,220.478714 564.200134,221.183990 568.219116,219.667389 
	C569.719055,219.101379 570.806946,218.101013 570.828918,216.376801 
	C570.851440,214.607971 569.728943,213.620590 568.176025,213.192657 
	C564.656311,212.222748 561.090088,211.419815 557.576843,210.428482 
	C552.944641,209.121475 549.394592,206.593628 548.750122,201.423889 
	C548.111450,196.301056 549.932617,192.292923 554.955933,189.596313 
z"/>
<path fill="#000000" opacity="1.000000" stroke="none" 
	d="
M678.290405,212.996887 
	C678.280579,216.653122 678.322327,219.812393 678.241882,222.968567 
	C678.193054,224.881149 678.718384,227.188156 675.991882,227.847382 
	C673.527039,228.443359 671.384827,228.044449 670.158997,225.221878 
	C665.508179,228.433029 660.585449,229.843689 655.056335,228.334167 
	C649.397827,226.789307 645.170044,221.934189 645.057068,216.664780 
	C644.947266,211.537170 648.151672,207.255630 654.060974,205.564835 
	C657.861816,204.477325 661.901794,204.254349 665.786682,203.420471 
	C667.769714,202.994797 670.467590,203.021286 670.545288,200.012375 
	C670.623657,196.978745 668.989807,194.950638 666.025024,194.287674 
	C662.175781,193.426987 658.152222,193.174301 655.431030,196.563889 
	C652.761780,199.888840 650.244568,199.289886 647.439758,197.631409 
	C646.808167,195.867126 647.672180,194.764725 648.399048,193.679825 
	C652.069519,188.200790 660.865845,185.765610 668.722534,188.012970 
	C675.087280,189.833557 678.202942,194.381454 678.279175,202.027435 
	C678.314026,205.517517 678.288513,209.008209 678.290405,212.996887 
M669.068176,209.417053 
	C664.785400,209.857941 660.458374,210.071579 656.330566,211.425720 
	C654.289185,212.095428 652.858826,213.614136 652.660278,215.749786 
	C652.468384,217.814087 653.204407,219.864807 655.176575,220.820694 
	C659.179260,222.760788 663.369385,222.794937 666.997253,220.145203 
	C670.522278,217.570557 671.908630,213.996841 669.068176,209.417053 
z"/>
<path fill="#000000" opacity="1.000000" stroke="none" 
	d="
M686.221741,199.672272 
	C685.001404,195.879410 682.849548,192.750031 682.980652,188.769897 
	C687.159241,186.977631 689.917175,187.583405 691.455750,192.246490 
	C694.110168,200.291397 697.068604,208.236023 700.367126,217.541977 
	C701.998596,213.299026 703.240234,210.214035 704.373413,207.089691 
	C706.132507,202.239548 708.022766,197.422867 709.475220,192.479721 
	C710.857788,187.774429 713.585327,186.918564 717.634583,188.577652 
	C718.522949,190.074753 717.889526,191.323792 717.428345,192.551666 
	C712.219421,206.417725 707.152100,220.340042 701.708374,234.113556 
	C698.708801,241.703064 692.583252,244.155029 685.070129,241.281235 
	C685.419617,238.735382 685.183777,236.193192 689.070557,235.696732 
	C694.716980,234.975540 697.555908,229.784241 695.549438,224.322769 
	C692.564941,216.198914 689.436584,208.127869 686.221741,199.672272 
z"/>
<path fill="#000000" opacity="1.000000" stroke="none" 
	d="
M481.779541,203.005814 
	C481.777649,199.848770 481.631927,197.180344 481.819214,194.535477 
	C481.981262,192.247223 480.598267,188.991516 484.030243,188.202728 
	C487.160980,187.483215 490.702789,186.897507 492.741058,190.665482 
	C494.666809,189.716019 496.364624,188.378708 498.227661,188.083420 
	C500.714661,187.689240 504.106598,186.121796 505.097809,190.380249 
	C506.116943,194.758713 504.676880,196.551361 500.032135,197.065598 
	C494.959503,197.627182 492.422485,200.279144 492.268951,205.635910 
	C492.102386,211.446442 492.052429,217.268295 492.217529,223.077652 
	C492.334473,227.192520 490.210571,228.103271 486.641144,228.117218 
	C482.929230,228.131729 481.687744,226.473694 481.764709,222.941742 
	C481.905884,216.465668 481.789398,209.983994 481.779541,203.005814 
z"/>
<path fill="#000000" opacity="1.000000" stroke="none" 
	d="
M638.941528,194.001648 
	C638.951355,202.643585 638.981140,210.786102 638.941040,218.928299 
	C638.931274,220.915359 638.685974,222.900879 638.560547,224.887833 
	C638.391357,227.568069 636.619812,228.038940 634.395081,227.987579 
	C631.959900,227.931335 631.336182,226.449677 631.350159,224.353516 
	C631.453125,208.920258 631.552612,193.486954 631.631042,178.053543 
	C631.642273,175.838715 632.546326,174.725845 634.883301,174.650772 
	C637.365112,174.571075 638.729919,175.641357 638.788147,178.053848 
	C638.912292,183.201462 638.895081,188.352493 638.941528,194.001648 
z"/>
</svg>